<svg width="279" height="279" viewBox="0 0 279 279" fill="none" xmlns="http://www.w3.org/2000/svg">
<path d="M121.612 7.43237C130.486 -1.65655 145.048 -1.83085 154.137 7.04307L271.482 121.612C280.571 130.486 280.745 145.048 271.871 154.137L157.302 271.482C148.428 280.571 133.866 280.745 124.778 271.871L7.43236 157.302C-1.65655 148.428 -1.83085 133.866 7.04306 124.777L121.612 7.43237Z" fill="white" stroke="black"/>
<rect x="38.4754" y="42.4754" width="202" height="193" rx="96.5" fill="black" stroke="black"/>
<rect x="60.9754" y="63.9754" width="156" height="150" rx="75" fill="white"/>
<rect x="260.409" y="130.975" width="15.3384" height="243.434" rx="7.66918" transform="rotate(89.92 260.409 130.975)" fill="white"/>
<rect x="145.313" y="260.55" width="15.3384" height="243.434" rx="7.66918" transform="rotate(-179.427 145.313 260.55)" fill="white"/>
<rect x="83.9754" y="82.9754" width="116" height="115" rx="55.5" fill="black"/>
<path d="M106.219 164.911C106.219 162.351 106.635 160.559 107.467 159.535C109.131 158.767 110.987 158.383 113.035 158.383C112.267 151.983 111.883 145.551 111.883 139.087C111.883 132.879 112.267 126.703 113.035 120.559C112.715 120.559 111.979 120.463 110.827 120.271C109.163 120.015 108.043 119.727 107.467 119.407C107.019 118.895 106.795 117.103 106.795 114.031C106.795 111.023 107.019 109.199 107.467 108.559C107.915 107.791 109.483 107.183 112.171 106.735C114.859 106.223 117.483 105.967 120.043 105.967C122.795 105.967 125.771 106.255 128.971 106.831C132.235 107.407 134.091 107.919 134.539 108.367C135.563 110.671 136.075 113.455 136.075 116.719C136.075 117.871 135.915 118.703 135.595 119.215C134.251 119.855 133.131 120.207 132.235 120.271C134.795 123.151 137.803 126.703 141.259 130.927C144.651 126.831 147.691 123.247 150.379 120.175C149.099 119.919 148.235 119.663 147.787 119.407C147.339 118.895 147.115 117.103 147.115 114.031C147.115 111.023 147.339 109.199 147.787 108.559C148.299 107.791 149.803 107.183 152.299 106.735C154.859 106.223 157.803 105.967 161.131 105.967C168.619 105.967 173.547 106.831 175.915 108.559C176.619 109.263 176.971 110.831 176.971 113.263C176.971 116.207 176.619 118.191 175.915 119.215C174.507 119.919 172.971 120.271 171.307 120.271C170.603 120.271 170.059 120.239 169.675 120.175C170.443 125.359 170.827 130.991 170.827 137.071C170.827 142.063 170.443 149.295 169.675 158.767C170.059 158.703 170.603 158.671 171.307 158.671C172.971 158.671 174.507 159.023 175.915 159.727C176.235 160.431 176.395 161.583 176.395 163.183C176.395 165.231 176.139 167.183 175.627 169.039C175.179 170.895 174.635 171.919 173.995 172.111C172.715 172.687 169.291 172.975 163.723 172.975C155.531 172.975 150.219 172.111 147.787 170.383C146.891 169.487 146.443 167.663 146.443 164.911C146.443 162.287 146.891 160.495 147.787 159.535C148.363 159.215 149.483 158.927 151.147 158.671C152.299 158.479 153.035 158.383 153.355 158.383C152.587 151.983 152.203 145.295 152.203 138.319C148.299 143.567 144.651 146.191 141.259 146.191C137.931 146.191 134.347 143.599 130.507 138.415C130.315 144.303 129.931 151.087 129.355 158.767C129.739 158.703 130.283 158.671 130.987 158.671C132.651 158.671 134.187 159.023 135.595 159.727C136.619 161.007 137.131 163.023 137.131 165.775C137.131 167.951 136.683 169.519 135.787 170.479C133.355 172.143 128.555 172.975 121.387 172.975C113.323 172.975 108.683 172.111 107.467 170.383C106.635 169.743 106.219 167.919 106.219 164.911Z" fill="white"/>
</svg>
